# xmcd
#
# Track frame offsets: 
#        150
#        17850
#        45822
#        59102
#        79505
#        95000
#        107390
#        144105
#        169197
#
# Disc length: 2465 seconds
#
# Revision: 1
# Processed by: cddbd v1.5.2PL0 Copyright (c) Steve Scherf et al.
# Submitted via: ExactAudioCopy v1.0b3
#
DISCID=67099f09
DTITLE=Little Sonny - Hard Goin' Up
DYEAR=1973
DGENRE=Blues
TTITLE0=It's Hard Going Up
TTITLE1=My Woman Is Good To Me
TTITLE2=You're Spreading Yourself a Little Too Thin
TTITLE3=The Day You Left Me
TTITLE4=You Can Be Replaced
TTITLE5=Do It Right Now
TTITLE6=You Made Me Strong
TTITLE7=Sure Is Good
TTITLE8=I Want You
EXTD=
EXTT0=
EXTT1=
EXTT2=
EXTT3=
EXTT4=
EXTT5=
EXTT6=
EXTT7=
EXTT8=
PLAYORDER=
